<svg version="1.1" xmlns="http://www.w3.org/2000/svg" xmlns:xlink="http://www.w3.org/1999/xlink" viewBox="0,0,256,256"><g fill="#0077cc" fill-rule="nonzero" stroke="none" stroke-width="1" stroke-linecap="butt" stroke-linejoin="miter" stroke-miterlimit="10" stroke-dasharray="" stroke-dashoffset="0" font-family="none" font-weight="none" font-size="none" text-anchor="none" style="mix-blend-mode: normal"><g transform="scale(5.12,5.12)"><path d="M47.868,24.504l-2.366,-4.141l0.296,-4.835c0.021,-0.347 -0.14,-0.681 -0.425,-0.88l-3.946,-2.763l-1.774,-4.438c-0.13,-0.324 -0.42,-0.558 -0.765,-0.615l-4.735,-0.789l-3.553,-3.256c-0.26,-0.238 -0.625,-0.322 -0.961,-0.221l-4.639,1.381l-4.639,-1.381c-0.336,-0.101 -0.701,-0.017 -0.961,0.221l-3.553,3.257l-4.735,0.789c-0.345,0.057 -0.635,0.291 -0.765,0.615l-1.774,4.438l-3.946,2.763c-0.285,0.2 -0.446,0.533 -0.425,0.88l0.296,4.835l-2.366,4.141c-0.176,0.307 -0.176,0.685 0,0.992l2.366,4.141l-0.296,4.835c-0.021,0.347 0.14,0.681 0.425,0.88l3.946,2.763l1.774,4.438c0.13,0.324 0.42,0.558 0.765,0.615l4.735,0.789l3.553,3.257c0.26,0.238 0.625,0.321 0.961,0.221l4.639,-1.383l4.639,1.381c0.094,0.028 0.189,0.042 0.285,0.042c0.247,0 0.488,-0.091 0.676,-0.263l3.553,-3.257l4.735,-0.789c0.345,-0.057 0.635,-0.291 0.765,-0.615l1.774,-4.438l3.946,-2.763c0.285,-0.2 0.446,-0.533 0.425,-0.88l-0.296,-4.835l2.366,-4.141c0.176,-0.306 0.176,-0.684 0,-0.991zM23.503,34.53l-9.073,-8.188l1.34,-1.484l7.327,6.612l10.963,-17.012l1.682,1.083z"></path></g></g></svg>